<svg width="32" height="32" viewBox="0 0 32 32" fill="none" xmlns="http://www.w3.org/2000/svg">
<path opacity="0.4" fill-rule="evenodd" clip-rule="evenodd" d="M22.8808 27.4513C22.8808 26.3313 23.7875 25.4247 24.9075 25.4247C26.0142 25.4247 26.9208 26.3313 26.9208 27.4513C26.9208 28.558 26.0142 29.4647 24.9075 29.4647C23.7875 29.4647 22.8808 28.558 22.8808 27.4513ZM7.88081 27.4513C7.88081 26.3313 8.78748 25.4247 9.90748 25.4247C11.0141 25.4247 11.9208 26.3313 11.9208 27.4513C11.9208 28.558 11.0141 29.4647 9.90748 29.4647C8.78748 29.4647 7.88081 28.558 7.88081 27.4513Z" fill="white"/>
<path fill-rule="evenodd" clip-rule="evenodd" d="M26.9211 8.46533C27.7344 8.46533 28.2677 8.74533 28.8011 9.35866C29.3344 9.97199 29.4277 10.852 29.3077 11.6507L28.0411 20.3973C27.8011 22.0787 26.3611 23.3173 24.6677 23.3173H10.1211C8.34774 23.3173 6.88107 21.9573 6.7344 20.1987L5.50774 5.66399L3.4944 5.31733C2.96107 5.22399 2.58774 4.70399 2.68107 4.17066C2.7744 3.62399 3.2944 3.26399 3.84107 3.34399L7.02107 3.82399C7.4744 3.90533 7.80774 4.27733 7.84774 4.73066L8.10107 7.71733C8.14107 8.14533 8.48774 8.46533 8.9144 8.46533H26.9211ZM18.8411 15.3973H22.5344C23.0944 15.3973 23.5344 14.944 23.5344 14.3973C23.5344 13.8373 23.0944 13.3973 22.5344 13.3973H18.8411C18.2811 13.3973 17.8411 13.8373 17.8411 14.3973C17.8411 14.944 18.2811 15.3973 18.8411 15.3973Z" fill="white"/>
</svg>
